<?xml version="1.0" standalone="no"?>
<!DOCTYPE svg PUBLIC "-//W3C//DTD SVG 20010904//EN"
 "http://www.w3.org/TR/2001/REC-SVG-20010904/DTD/svg10.dtd">
<svg version="1.0" xmlns="http://www.w3.org/2000/svg"
 width="500.000000pt" height="500.000000pt" viewBox="0 0 500.000000 500.000000"
 preserveAspectRatio="xMidYMid meet">

<g transform="translate(0.000000,500.000000) scale(0.100000,-0.100000)"
fill="#ea2845" stroke="none">
<path d="M2499 4901 c-14 -5 -36 -14 -50 -21 -100 -52 -1919 -1107 -1938
-1124 -13 -11 -32 -39 -42 -61 -18 -38 -19 -93 -19 -1190 0 -1099 1 -1152 19
-1190 10 -22 34 -54 52 -71 34 -31 1874 -1099 1958 -1137 55 -24 128 -19 192
14 24 12 400 227 834 479 435 251 846 488 913 526 68 38 144 87 169 109 85 74
83 53 83 616 0 538 2 522 -53 521 -22 0 -311 -158 -350 -190 -15 -14 -17 -40
-17 -287 0 -307 -5 -337 -69 -402 -38 -38 -1480 -880 -1549 -904 -18 -6 -59
-9 -91 -7 -55 4 -91 23 -801 434 -409 236 -760 441 -780 456 -21 15 -49 49
-64 79 l-26 53 0 895 0 896 24 51 c13 28 39 63 57 77 19 14 371 220 784 457
695 401 754 433 805 437 43 4 67 1 101 -14 25 -11 373 -208 774 -438 478 -274
743 -432 766 -456 67 -68 69 -85 69 -521 l0 -388 25 -16 c14 -9 32 -13 45 -9
28 9 276 151 318 182 l32 24 0 438 c0 436 0 438 -23 482 -17 33 -41 56 -97 93
-138 89 -1894 1096 -1930 1106 -41 11 -84 12 -121 1z"/>
<path d="M2477 4048 c-16 -5 -278 -155 -584 -332 -356 -205 -564 -331 -577
-349 -27 -36 -27 -97 -1 -133 12 -15 227 -146 530 -321 662 -383 643 -373 711
-373 30 0 69 6 87 13 18 8 220 123 449 255 230 133 420 242 423 242 3 0 5
-249 5 -554 l0 -554 -402 -233 c-222 -128 -423 -242 -448 -254 -61 -30 -103
-37 -157 -25 -67 16 -875 483 -896 520 -15 25 -17 70 -17 372 0 285 -2 347
-15 364 -8 12 -86 63 -174 113 -173 100 -204 108 -228 61 -10 -20 -13 -145
-11 -577 3 -543 3 -552 24 -580 14 -18 240 -155 630 -381 335 -194 624 -359
643 -367 18 -8 59 -15 91 -15 75 0 69 -3 769 402 373 216 582 343 595 361 21
28 21 35 21 797 0 755 0 769 -20 796 -25 33 -370 237 -401 237 -13 0 -187 -95
-386 -211 -508 -295 -503 -292 -577 -292 -72 0 -53 -8 -285 124 -186 105 -209
126 -189 169 14 30 364 233 427 247 60 13 116 0 200 -46 51 -28 71 -34 89 -27
55 19 337 189 343 206 15 47 -1 60 -233 194 -125 73 -245 139 -265 148 -42 17
-128 19 -171 3z"/>
</g>
</svg>
